<?xml version="1.0" encoding="UTF-8"?>
<svg version="1.1" xmlns="http://www.w3.org/2000/svg" width="512" height="512">
<style type="text/css">
	.st0{fill:#E6007A;}
</style>
<path d="M0 0 C2.09349408 -0.01819525 4.18695216 -0.04103236 6.28034973 -0.06814575 C11.95038845 -0.1267154 17.61828759 -0.11565978 23.2884872 -0.08836555 C28.02765652 -0.07205874 32.76643481 -0.09030067 37.50557715 -0.10860968 C48.68832622 -0.15144084 59.87003934 -0.13835884 71.05273438 -0.08886719 C82.57745868 -0.03869746 94.09952658 -0.07565777 105.62401479 -0.15679216 C115.53105999 -0.22385813 125.4372858 -0.24025204 135.3445273 -0.215446 C141.25634107 -0.20093107 147.16664676 -0.20462134 153.07829094 -0.25563049 C158.6388753 -0.30111048 164.19574789 -0.28296568 169.75608635 -0.21654892 C171.79174935 -0.20260092 173.82770412 -0.21060909 175.86316299 -0.24263382 C190.79974381 -0.45833946 190.79974381 -0.45833946 195.28522992 2.72903633 C198.8244518 6.18203652 201.16929939 10.12229137 203.49243164 14.45507812 C204.04127486 15.36649818 204.59011808 16.27791824 205.15559292 17.21695709 C206.47916786 19.42125502 207.65560787 21.65568669 208.80493164 23.95507812 C209.22025146 24.76984619 209.63557129 25.58461426 210.06347656 26.42407227 C228.0857397 62.31619788 230.23285062 103.94600602 218.06274414 142.08007812 C208.9370662 169.02336059 193.27305436 192.1105147 172.49243164 211.45507812 C171.76302651 212.14080745 171.03362139 212.82653677 170.28211308 213.53304577 C166.88693828 215.87225043 165.02932654 215.96823028 160.93565369 215.99665833 C159.96801845 216.01131001 159.96801845 216.01131001 158.98083502 216.02625769 C156.82679327 216.05384196 154.67373523 216.05298703 152.51953125 216.05200195 C150.9717667 216.06561349 149.42401569 216.08084745 147.87628174 216.09757996 C143.675446 216.13716813 139.47491894 216.1506777 135.27391505 216.15703797 C132.64536484 216.16210824 130.01689377 216.1726229 127.38836861 216.1850338 C118.20629682 216.22803326 109.02445448 216.24924969 99.84228516 216.2512207 C91.30373103 216.25365074 82.76639626 216.30456098 74.22818559 216.37811261 C66.88353503 216.43913198 59.53928405 216.46513513 52.19438177 216.46455592 C47.81395155 216.46483819 43.43468837 216.47904765 39.05451775 216.52890968 C34.92768588 216.5747366 30.8030381 216.5766508 26.67608643 216.54622078 C25.17011488 216.54234145 23.66400864 216.55353698 22.15829659 216.58176041 C10.76564291 216.78175794 4.75220702 214.0642274 -3.50756836 206.45507812 C-4.13378114 205.92748303 -4.75999392 205.39988794 -5.40518284 204.85630512 C-16.67033869 195.35640104 -25.56184507 184.53315568 -33.42211914 172.15185547 C-34.32235423 170.74460539 -35.25297973 169.35685024 -36.19116211 167.97460938 C-55.00578088 139.16631777 -59.47930874 100.02163416 -53.0168457 66.83203125 C-49.13228116 48.70158042 -41.95785871 30.68524579 -31.46115208 15.36125946 C-29.48442322 12.5079468 -29.48442322 12.5079468 -27.89968014 9.56897736 C-20.8798575 -1.34786568 -11.75367858 -0.1215565 0 0 Z " fill="#FFFFFF" transform="translate(179.507568359375,247.544921875)"/>
<path d="M0 0 C1.1849735 -0.00445668 1.1849735 -0.00445668 2.39388585 -0.0090034 C5.04379024 -0.01768227 7.69364941 -0.01919797 10.34356689 -0.02069092 C12.24248348 -0.02531968 14.14139914 -0.03034442 16.04031372 -0.03573608 C21.20160608 -0.04885677 26.36288543 -0.05530443 31.52419186 -0.05974674 C34.74917463 -0.06267808 37.97415384 -0.06678302 41.19913483 -0.07125092 C51.29052741 -0.08492515 61.38191188 -0.0945921 71.47331309 -0.09845281 C83.12010853 -0.10293311 94.76678658 -0.12048006 106.41354632 -0.1494534 C115.41750159 -0.17107433 124.42142384 -0.18115731 133.42540479 -0.18249393 C138.80239451 -0.18354168 144.17927388 -0.18944331 149.55623627 -0.20731354 C154.61563507 -0.22380119 159.67484064 -0.22594629 164.73425674 -0.21717453 C166.58857109 -0.21640452 168.44289586 -0.22074207 170.29718399 -0.23063278 C172.83425655 -0.24336903 175.37064645 -0.23746656 177.90771484 -0.22705078 C179.00093398 -0.23913539 179.00093398 -0.23913539 180.11623836 -0.25146413 C187.36783134 -0.18213146 193.96670875 1.89932594 199.20782471 7.14044189 C202.58712712 12.33008489 203.99847852 18.20129163 202.77032471 24.32012939 C200.87058851 30.0409259 197.63916524 33.43850352 192.70782471 36.89044189 C187.77815585 39.35527632 182.79258798 39.28734286 177.37805176 39.28088379 C176.20510563 39.28534047 176.20510563 39.28534047 175.00846362 39.28988719 C172.39163819 39.29854971 169.77485864 39.30008036 167.15802002 39.30157471 C165.28028262 39.30620461 163.40254616 39.3112295 161.52481079 39.31661987 C156.425492 39.32972916 151.32618637 39.33618595 146.22685337 39.34063053 C143.03954708 39.34356358 139.85224437 39.34766883 136.66493988 39.3521347 C126.68834489 39.36580566 116.7117581 39.37547433 106.73515439 39.3793366 C95.22647963 39.38381672 83.71792366 39.40136425 72.20928502 39.43033719 C63.30805317 39.45196664 54.40685472 39.46204155 45.50559688 39.46337771 C40.1917468 39.46442482 34.87800846 39.47031259 29.5641861 39.48819733 C24.56386612 39.50469983 19.56374162 39.50682289 14.56340408 39.49805832 C12.73208466 39.49728912 10.90075464 39.50161518 9.06946182 39.51151657 C-11.5841901 39.61660357 -11.5841901 39.61660357 -18.66717529 33.76544189 C-22.66047579 28.83254129 -24.99051113 24.66219079 -24.79217529 18.14044189 C-23.69413424 12.70468494 -21.82124415 8.0543945 -17.79217529 4.14044189 C-11.75644062 0.61959667 -6.88803107 -0.0080901 0 0 Z " fill="#FFFFFF" transform="translate(174.79217529296875,206.85955810546875)"/>
<path d="M0 0 C9.38690306 4.59046043 15.3280824 15.73734361 21.21484375 24.08203125 C24.3349402 28.49359205 27.53958692 32.84142156 30.75 37.1875 C31.34256592 37.98994141 31.93513184 38.79238281 32.5456543 39.61914062 C33.75867825 41.26110709 34.97197755 42.90287017 36.18554688 44.54443359 C39.12794675 48.52649198 42.0637748 52.51338768 45 56.5 C48.50887215 61.26382727 52.01897805 66.02671801 55.53515625 70.78515625 C61.77471072 79.23340257 67.9706422 87.71006584 74.10791016 96.23291016 C78.01924675 101.65815992 81.96776492 107.05485517 85.9375 112.4375 C86.50944092 113.21424072 87.08138184 113.99098145 87.6706543 114.79125977 C90.74970538 118.96809324 93.84553856 123.13144721 96.9609375 127.28125 C97.60554932 128.14435791 98.25016113 129.00746582 98.91430664 129.89672852 C100.15303747 131.55479562 101.39679727 133.2091209 102.64624023 134.85913086 C103.20255127 135.60557861 103.7588623 136.35202637 104.33203125 137.12109375 C104.82421143 137.7752124 105.3163916 138.42933105 105.82348633 139.10327148 C107.04656316 141.07506728 107.57001005 142.73223618 108 145 C81.55416504 147.18659911 81.55416504 147.18659911 74.77587891 143.93212891 C71.45956633 141.01216368 69.83733017 137.1807841 68.08789062 133.19482422 C66.01358516 129.00990364 63.02195692 125.44193968 60.1875 121.75 C58.97939904 120.1225124 57.7749793 118.49228587 56.57421875 116.859375 C55.97786621 116.05048828 55.38151367 115.24160156 54.76708984 114.40820312 C51.98869971 110.62179247 49.24329491 106.81187719 46.5 103 C42.03984573 96.80341871 37.53750831 90.64016025 33 84.5 C28.46248989 78.35983731 23.96033424 72.19645339 19.5 66 C15.05577717 59.82803071 10.57523466 53.68454855 6.0625 47.5625 C5.20458862 46.39195068 5.20458862 46.39195068 4.3293457 45.19775391 C1.28525606 41.05342685 -1.8017893 36.95198981 -4.9609375 32.89453125 C-5.60554932 32.05398193 -6.25016113 31.21343262 -6.91430664 30.34741211 C-8.14323903 28.74671779 -9.38641767 27.15681971 -10.64624023 25.58032227 C-14.48332183 20.54293709 -16.3183483 16.41459921 -16 10 C-15.36328125 7.44140625 -15.36328125 7.44140625 -14.3125 5.5625 C-13.97863281 4.92441406 -13.64476563 4.28632812 -13.30078125 3.62890625 C-10.00005575 -0.50443469 -4.96944493 -0.86063013 0 0 Z " fill="#FFFFFF" transform="translate(123,58)"/>
<path d="M0 0 C1.31792038 -0.00426498 2.63584076 -0.00852997 3.99369812 -0.01292419 C5.4577637 -0.01257467 6.92182926 -0.01211313 8.38589478 -0.0115509 C9.92500388 -0.01454249 11.46411224 -0.01794501 13.0032196 -0.02172852 C17.18713254 -0.03057304 21.37102504 -0.03290683 25.55494642 -0.0335443 C29.04651405 -0.03449325 32.53807691 -0.03817142 36.0296427 -0.0417164 C44.26704819 -0.04986276 52.50444275 -0.05230048 60.74185181 -0.05158997 C69.24138253 -0.05098918 77.74084978 -0.06154066 86.24036443 -0.07733363 C93.5355625 -0.09040622 100.83073981 -0.09577398 108.1259495 -0.09513456 C112.48393586 -0.09487948 116.84186584 -0.09773615 121.19984055 -0.10831261 C125.29888587 -0.11798879 129.39782085 -0.11807607 133.49687004 -0.11079597 C135.00090254 -0.10974952 136.50494189 -0.11211664 138.00896263 -0.11815643 C140.06315255 -0.12587092 142.11696091 -0.12123541 144.17114258 -0.11352539 C145.32040915 -0.11407016 146.46967571 -0.11461493 147.65376854 -0.1151762 C150.82209409 0.14262581 152.92234494 0.62201533 155.71255493 2.13371277 C158.71255493 6.13371277 158.71255493 6.13371277 158.71255493 19.13371277 C101.62255493 19.13371277 44.53255493 19.13371277 -14.28744507 19.13371277 C-14.28744507 6.13371277 -14.28744507 6.13371277 -11.97494507 2.88371277 C-7.83878011 0.19039605 -4.84002044 0.00706228 0 0 Z " fill="#FFFFFF" transform="translate(194.28744506835938,468.8662872314453)"/>
<path d="M0 0 C5.34306567 3.97425909 7.94067936 8.1000323 9.0625 14.75 C9.51727888 21.43524956 7.48268817 27.00801724 3.375 32.25 C-0.96134746 36.83079842 -5.57392912 38.50678137 -11.8125 38.8125 C-18.35583474 38.59372589 -22.71301304 36.15263373 -27.6875 32.0625 C-32.04888657 26.70422507 -33.46629293 21.66039746 -33.21875 14.86328125 C-32.30582462 8.25494637 -28.91437786 3.60622706 -23.71875 -0.43359375 C-16.24967004 -5.26001195 -7.35888871 -4.52668483 0 0 Z " fill="#FFFFFF" transform="translate(362.875,165.625)"/>
<path d="M0 0 C5.11154968 3.61548636 9.06945979 7.74057216 11.25 13.6875 C12.17750322 19.99452186 11.53938665 25.20130493 8.5625 30.8125 C4.45378613 35.55332369 0.36730205 39.46865863 -6.07421875 40.05078125 C-12.63798137 40.21046306 -18.23710834 40.19055801 -23.4375 35.8125 C-28.17105427 30.07423071 -30.88745579 24.85532205 -30.77734375 17.35546875 C-30.05047147 11.91645896 -27.62843397 6.90755064 -23.65234375 3.10546875 C-16.66594683 -2.04162197 -8.16024952 -2.81899529 0 0 Z " fill="#FFFFFF" transform="translate(228.4375,25.1875)"/>
<path d="M0 0 C5.2047841 5.63851611 6.48672301 10.69461556 6.3046875 18.21875 C5.7267874 23.49394068 3.96843754 27.18602737 0.05859375 30.7890625 C-6.43801013 35.83798853 -11.83383626 36.79315681 -20 36 C-26.67956956 34.03542072 -30.49366739 30.02772047 -34.11328125 24.2109375 C-36.39050875 18.5329165 -35.73895291 11.17796646 -33.8125 5.5 C-29.54928486 -0.38029675 -25.19808319 -3.78722041 -18.1875 -5.8125 C-11.22035874 -6.22233184 -5.44131426 -4.42897672 0 0 Z " fill="#FFFFFF" transform="translate(319,135)"/>
<path d="M0 0 C5.40453536 3.13418751 8.62696635 7.45100549 10.625 13.375 C11.53722617 20.47127105 10.92664439 26.5416128 6.625 32.375 C2.57758263 37.19539894 -1.60855021 39.35085192 -7.828125 40.24609375 C-14.27075915 40.57217799 -18.74495207 39.24411791 -23.75 35.125 C-28.73076973 30.27321434 -30.52357938 26.47787064 -30.8125 19.5 C-30.63188613 13.16280914 -29.31352819 8.52284801 -24.94921875 3.84765625 C-18.00243887 -2.34520954 -8.54095551 -3.88961921 0 0 Z " fill="#FFFFFF" transform="translate(306.375,82.625)"/>
<path d="M0 0 C5.26441747 3.15270199 9.13393791 7.36211897 11.51171875 13.0546875 C12.41360268 20.39560317 12.05844067 27.02503474 7.51171875 33.0546875 C3.70788167 37.12948284 -0.53871518 39.67552056 -6.1015625 40.390625 C-13.23881732 40.49391378 -18.66937419 39.61055759 -24.01953125 34.62890625 C-28.91437501 29.12220702 -29.95475872 23.99017269 -29.80078125 16.83984375 C-29.15981113 11.12719755 -26.7963547 6.94105112 -22.48828125 3.1796875 C-15.73326702 -1.60511425 -8.0123316 -3.04393131 0 0 Z " fill="#FFFFFF" transform="translate(267.48828125,148.9453125)"/>
</svg>
